<svg width="145" height="42" viewBox="0 0 145 42" fill="none" xmlns="http://www.w3.org/2000/svg">
<path d="M3.51465 34.8975V6.21094C3.51465 6.11328 3.889 5.89355 4.6377 5.55176C5.40267 5.20996 6.35482 4.81934 7.49414 4.37988C8.63346 3.94043 9.7972 3.50911 10.9854 3.08594C12.1735 2.66276 13.207 2.31283 14.0859 2.03613C14.9811 1.74316 15.5426 1.59668 15.7705 1.59668C16.0472 1.59668 16.4215 1.79199 16.8936 2.18262C17.3656 2.55697 17.8457 3.04525 18.334 3.64746C18.8223 4.24967 19.2292 4.88444 19.5547 5.55176C19.8965 6.2028 20.0674 6.80501 20.0674 7.3584V20.4443H22.5088V21.6406L20.0674 22.9102V32.6025C20.0674 34.4417 20.8649 35.5241 22.46 35.8496V36.9482L17.0156 40C16.2832 39.707 15.5996 39.2188 14.9648 38.5352C14.3301 37.8516 14.0127 37.2087 14.0127 36.6064V22.9102H9.52051V32.3096C9.52051 33.5303 9.65072 34.4092 9.91113 34.9463C10.1715 35.4834 10.7249 35.752 11.5713 35.752V37.29L1.31738 41.6113L0.511719 40C1.24414 40 1.94401 39.5687 2.61133 38.7061C3.21354 37.8923 3.51465 36.6227 3.51465 34.8975ZM11.4736 6.25977C10.8063 6.25977 10.1553 6.50391 9.52051 6.99219V21.7383L12.4502 20.4443H14.0127V9.94629C14.0127 7.48861 13.1663 6.25977 11.4736 6.25977ZM26.2979 34.8975V9.65332C26.2979 8.54655 26.0618 7.5944 25.5898 6.79688C25.1341 5.99935 24.5563 5.60059 23.8564 5.60059V4.50195C24.0843 4.4694 25.8991 3.45215 29.3008 1.4502C29.4147 1.48275 29.5449 1.52344 29.6914 1.57227C29.8379 1.60482 29.9925 1.65365 30.1553 1.71875C30.4808 1.83268 30.9202 2.1582 31.4736 2.69531C32.027 3.23242 32.3037 3.85091 32.3037 4.55078C32.499 4.45312 33.0605 4.13574 33.9883 3.59863C36.4622 2.19889 37.9922 1.49902 38.5781 1.49902C39.1641 1.49902 39.8151 1.80013 40.5312 2.40234C41.2474 3.00456 41.7845 3.7207 42.1426 4.55078C42.1751 4.53451 42.3623 4.43685 42.7041 4.25781C43.0459 4.07878 43.5423 3.8265 44.1934 3.50098C46.7975 2.16634 48.3682 1.49902 48.9053 1.49902C49.6214 1.49902 50.3132 1.83268 50.9805 2.5C51.6478 3.16732 52.2012 3.96484 52.6406 4.89258C53.0801 5.82031 53.2998 6.6748 53.2998 7.45605V32.6025C53.2998 34.458 54.1136 35.5404 55.7412 35.8496V36.9482L50.2969 40C49.5645 39.707 48.8809 39.2188 48.2461 38.5352C47.6113 37.8516 47.2939 37.2087 47.2939 36.6064V12.0947C47.2939 10.0928 46.9684 8.70117 46.3174 7.91992C45.6663 7.13867 44.4945 6.71549 42.8018 6.65039V32.6025C42.8018 34.458 43.6156 35.5404 45.2432 35.8496V36.9482L39.7988 40C39.0664 39.707 38.3828 39.2188 37.748 38.5352C37.1133 37.8516 36.7959 37.2087 36.7959 36.6064V12.0947C36.7959 9.99512 36.4867 8.56283 35.8682 7.79785C35.2497 7.03288 34.0615 6.65039 32.3037 6.65039V32.3096C32.3037 33.5303 32.4339 34.4092 32.6943 34.9463C32.9548 35.4834 33.5081 35.752 34.3545 35.752V37.29L24.1006 41.6113L23.2949 40C24.0273 40 24.7272 39.5687 25.3945 38.7061C25.9967 37.8923 26.2979 36.6227 26.2979 34.8975ZM59.5059 32.7002V6.08887C59.5059 5.99121 59.8802 5.77962 60.6289 5.4541C61.3939 5.1123 62.346 4.72168 63.4854 4.28223C64.6247 3.84277 65.7803 3.41146 66.9521 2.98828C68.1403 2.54883 69.182 2.19076 70.0771 1.91406C70.9723 1.63737 71.5339 1.49902 71.7617 1.49902C72.0547 1.49902 72.4372 1.69434 72.9092 2.08496C73.3812 2.45931 73.8532 2.94759 74.3252 3.5498C74.8135 4.15202 75.2204 4.78678 75.5459 5.4541C75.8877 6.10514 76.0586 6.70736 76.0586 7.26074V35.3613C76.0586 35.459 75.6924 35.6787 74.96 36.0205C74.2438 36.3623 73.3405 36.7611 72.25 37.2168C71.1595 37.6562 70.0283 38.0876 68.8564 38.5107C67.7008 38.9339 66.6592 39.292 65.7314 39.585C64.82 39.8617 64.2015 40 63.876 40C63.3389 40 62.7285 39.6745 62.0449 39.0234C61.3613 38.3561 60.7673 37.4691 60.2627 36.3623C59.7581 35.2555 59.5059 34.0348 59.5059 32.7002ZM68.0508 35.4102C68.7018 35.4102 69.3529 35.1416 70.0039 34.6045V9.84863C70.0039 7.39095 69.1576 6.16211 67.4648 6.16211C66.7975 6.16211 66.1465 6.40625 65.5117 6.89453V31.6992C65.5117 34.1732 66.3581 35.4102 68.0508 35.4102ZM82.3135 34.8975V8.99414C82.3135 6.95964 81.6299 5.81217 80.2627 5.55176V4.45312L85.3164 1.59668C85.9837 1.87337 86.651 2.36165 87.3184 3.06152C87.9857 3.76139 88.3193 4.38802 88.3193 4.94141C91.9977 2.71159 94.0973 1.59668 94.6182 1.59668C94.8786 1.59668 95.2367 1.79199 95.6924 2.18262C96.1644 2.55697 96.6445 3.04525 97.1328 3.64746C97.6211 4.24967 98.028 4.88444 98.3535 5.55176C98.6953 6.2028 98.8662 6.80501 98.8662 7.3584V21.3965C98.8662 21.6732 97.0514 22.5277 93.4219 23.96C94.9681 29.1357 96.7666 32.6188 98.8174 34.4092C99.7614 35.1742 100.705 35.5566 101.649 35.5566V37.0459C98.557 39.0153 96.5957 40 95.7656 40C95.3262 40 94.8135 39.6012 94.2275 38.8037C93.6416 37.9899 93.0475 36.9645 92.4453 35.7275C91.8431 34.4743 91.2816 33.1722 90.7607 31.8213C90.2399 30.4541 89.8005 29.209 89.4424 28.0859C89.1006 26.9629 88.9053 26.1328 88.8564 25.5957L88.3193 25.7422V32.3096C88.3193 33.5303 88.4495 34.4092 88.71 34.9463C88.9704 35.4834 89.5238 35.752 90.3701 35.752V37.29L80.1162 41.6113L79.3105 40C80.043 40 80.7428 39.5687 81.4102 38.7061C82.0124 37.8923 82.3135 36.6227 82.3135 34.8975ZM90.2725 6.40625C89.6865 6.40625 89.0355 6.65039 88.3193 7.13867V23.3984C88.9053 23.3984 89.5482 23.2682 90.248 23.0078C90.9479 22.7474 91.5501 22.4219 92.0547 22.0312C92.5592 21.6406 92.8115 21.25 92.8115 20.8594V10.0928C92.8115 7.63509 91.9652 6.40625 90.2725 6.40625ZM104.096 32.7002V6.08887C104.096 5.99121 104.47 5.77962 105.219 5.4541C105.984 5.1123 106.936 4.72168 108.075 4.28223C109.215 3.84277 110.37 3.41146 111.542 2.98828C112.73 2.54883 113.772 2.19076 114.667 1.91406C115.562 1.63737 116.124 1.49902 116.352 1.49902C116.645 1.49902 117.027 1.69434 117.499 2.08496C117.971 2.45931 118.443 2.94759 118.915 3.5498C119.403 4.15202 119.81 4.78678 120.136 5.4541C120.478 6.10514 120.648 6.70736 120.648 7.26074V35.3613C120.648 35.459 120.282 35.6787 119.55 36.0205C118.834 36.3623 117.93 36.7611 116.84 37.2168C115.749 37.6562 114.618 38.0876 113.446 38.5107C112.291 38.9339 111.249 39.292 110.321 39.585C109.41 39.8617 108.791 40 108.466 40C107.929 40 107.318 39.6745 106.635 39.0234C105.951 38.3561 105.357 37.4691 104.853 36.3623C104.348 35.2555 104.096 34.0348 104.096 32.7002ZM112.641 35.4102C113.292 35.4102 113.943 35.1416 114.594 34.6045V9.84863C114.594 7.39095 113.747 6.16211 112.055 6.16211C111.387 6.16211 110.736 6.40625 110.102 6.89453V31.6992C110.102 34.1732 110.948 35.4102 112.641 35.4102ZM129.491 34.8975V8.4082L131.029 6.89453H127.88C125.862 6.89453 124.714 7.44792 124.438 8.55469H123.339L120.482 4.45312C120.889 3.81836 121.41 3.25684 122.045 2.76855C122.663 2.264 123.274 2.01172 123.876 2.01172H137.084C139.102 2.01172 140.25 1.45833 140.526 0.351562H141.625L144.481 4.45312C144.075 5.08789 143.554 5.65755 142.919 6.16211C142.3 6.65039 141.69 6.89453 141.088 6.89453H135.473V32.3096C135.473 33.5303 135.603 34.4092 135.863 34.9463C136.14 35.4834 136.693 35.752 137.523 35.752V37.29L127.294 41.6113L126.488 40C127.221 40 127.921 39.5687 128.588 38.7061C129.19 37.8923 129.491 36.6227 129.491 34.8975Z" fill="white"/>
</svg>
