<svg width="144" height="99" viewBox="0 0 144 99" fill="none" xmlns="http://www.w3.org/2000/svg">
<path d="M2.6 33.2229C2.6 30.6476 2.7981 28.32 3.19429 26.24C3.64 24.16 4.43238 22.4019 5.57143 20.9657C6.71048 19.5295 8.32 18.44 10.4 17.6971C12.48 16.9048 15.2038 16.5086 18.5714 16.5086C21.8895 16.5086 24.5886 16.9048 26.6686 17.6971C28.7981 18.44 30.4324 19.5295 31.5714 20.9657C32.7105 22.4019 33.4781 24.16 33.8743 26.24C34.32 28.32 34.5429 30.6476 34.5429 33.2229V36.64C34.5429 39.2648 34.32 41.6171 33.8743 43.6971C33.4781 45.7276 32.7105 47.461 31.5714 48.8971C30.4324 50.3333 28.7981 51.4476 26.6686 52.24C24.5886 52.9829 21.8895 53.3543 18.5714 53.3543C15.2038 53.3543 12.48 52.9829 10.4 52.24C8.32 51.4476 6.71048 50.3333 5.57143 48.8971C4.43238 47.461 3.64 45.7276 3.19429 43.6971C2.7981 41.6171 2.6 39.2648 2.6 36.64V33.2229ZM36.3257 17.2514H49.2514V29.0629H52.4457V17.2514H65.3714V60.7829H52.4457V41.6914H49.2514V60.7829H36.3257V17.2514ZM18.5714 20.4457C18.4229 25.4476 17.0857 29.1124 14.56 31.44C12.0838 33.7181 8.74095 34.9067 4.53143 35.0057C8.88952 35.1048 12.3067 36.3676 14.7829 38.7943C17.3086 41.1714 18.5714 44.9848 18.5714 50.2343C18.5714 44.9848 19.8095 41.1467 22.2857 38.72C24.7619 36.2933 28.2038 35.0305 32.6114 34.9314C28.3524 34.8324 24.96 33.6438 22.4343 31.3657C19.9581 29.0876 18.6705 25.4476 18.5714 20.4457ZM18.5714 55.8057V68.5829L37.1429 68.5086C41.9962 68.459 46.899 68.261 51.8514 67.9143C56.8038 67.5676 61.4343 67.0476 65.7429 66.3543V80.0971H3.71429V55.8057H18.5714Z" fill="black"/>
<path d="M75.6838 19.1693H82.9488L84.4556 27.2146H88.8684V19.1693H94.2499V41.9329H88.8684V31.7888H85.3167L87.254 41.9329H81.6034L79.3163 26.0037L77.0292 41.9329H71.3786L75.6838 19.1693ZM112.537 19.1693H117.918V41.9329H112.537V19.1693ZM95.5851 19.1693H100.967V37.7623C102.922 37.7623 104.743 37.7084 106.429 37.6008C108.133 37.4752 109.756 37.26 111.299 36.955V41.9329H95.5851V19.1693ZM94.2499 57.1693V71.7531H71.9168V57.1693H77.2983V60.0215H88.8684V57.1693H94.2499ZM83.0833 60.4251C83.0833 62.1651 82.2313 63.5104 80.5271 64.4612C78.823 65.394 76.2758 65.8783 72.8855 65.9142C76.2758 65.968 78.823 66.4433 80.5271 67.3403C82.2313 68.2192 83.0833 69.5198 83.0833 71.2418C83.0833 69.5198 83.9264 68.2103 85.6126 67.3133C87.3168 66.4164 89.864 65.9411 93.2543 65.8873C89.864 65.8514 87.3168 65.3671 85.6126 64.4343C83.9264 63.5015 83.0833 62.1651 83.0833 60.4251ZM71.9168 75.7623H94.2499V79.9329H71.9168V75.7623ZM95.5851 66.3178H104.707V61.3399H95.5851V57.1693H110.088V70.4884H100.967V75.7623C101.935 75.7623 102.85 75.7533 103.711 75.7354C104.572 75.6995 105.397 75.6546 106.187 75.6008C106.976 75.5291 107.738 75.4483 108.474 75.3587C109.227 75.251 109.989 75.1165 110.761 74.955V79.9329H95.5851V66.3178ZM111.729 57.1693H117.111V65.2146H119.533V69.7888H117.111V79.9329H111.729V57.1693ZM141.721 62.0395C141.721 63.7975 141.281 65.0531 140.403 65.8065C139.541 66.542 138.304 66.9097 136.689 66.9097H124.15C122.536 66.9097 121.289 66.542 120.41 65.8065C119.549 65.0531 119.119 63.7975 119.119 62.0395C119.119 60.2995 119.549 59.0528 120.41 58.2994C121.289 57.546 122.536 57.1693 124.15 57.1693H136.689C138.304 57.1693 139.541 57.546 140.403 58.2994C141.281 59.0528 141.721 60.2995 141.721 62.0395ZM130.42 66.6407C130.42 65.977 130.635 65.376 131.066 64.8379C131.496 64.2818 132.133 63.8064 132.976 63.4118C133.837 62.9992 134.895 62.6763 136.151 62.4431C137.425 62.2099 138.905 62.0754 140.591 62.0395C137.218 62.0036 134.68 61.5641 132.976 60.721C131.272 59.86 130.42 58.7658 130.42 57.4383C130.42 58.7658 129.559 59.86 127.837 60.721C126.115 61.5641 123.576 62.0036 120.222 62.0395C121.908 62.0754 123.388 62.2099 124.662 62.4431C125.935 62.6763 126.994 62.9992 127.837 63.4118C128.698 63.8064 129.344 64.2818 129.774 64.8379C130.205 65.376 130.42 65.977 130.42 66.6407ZM119.253 67.7439H141.586V71.9145H133.514V74.7936H127.864V71.9145H119.253V67.7439ZM124.635 72.8832V75.7623L131.362 75.7354C133.12 75.7174 134.895 75.6457 136.689 75.5201C138.483 75.3945 140.16 75.2062 141.721 74.955V79.9329H119.253V72.8832H124.635Z" fill="black"/>
</svg>
