<svg width="31" height="32" viewBox="0 0 31 32" fill="none" xmlns="http://www.w3.org/2000/svg">
<path fill-rule="evenodd" clip-rule="evenodd" d="M19.1503 17.9524C22.6502 13.5801 22.3262 7.11077 18.2762 3.13373C14.0267 -1.039 7.28433 -0.887839 3.21665 3.47152C-0.85097 7.83088 -0.703593 14.7477 3.54589 18.9204C7.18022 22.4893 12.6381 22.8953 16.6866 20.2108L25.4931 30.6422C26.5109 31.8478 28.3854 31.8753 29.5843 30.5902C30.7834 29.3053 30.6778 27.3822 29.4626 26.3881L19.1503 17.9524Z" fill="black"/>
<path fill-rule="evenodd" clip-rule="evenodd" d="M16.3394 4.83325C19.4759 7.91324 19.5847 13.0185 16.5823 16.236C13.58 19.4537 8.6035 19.5653 5.467 16.4853C2.33051 13.4053 2.22169 8.30008 5.22401 5.08254C8.22632 1.86497 13.2029 1.75326 16.3394 4.83325Z" fill="white"/>
</svg>
