<?xml version="1.0" encoding="utf-8"?>
<!-- Generator: Adobe Illustrator 16.0.0, SVG Export Plug-In . SVG Version: 6.00 Build 0)  -->
<!DOCTYPE svg PUBLIC "-//W3C//DTD SVG 1.1//EN" "http://www.w3.org/Graphics/SVG/1.1/DTD/svg11.dtd">
<svg version="1.1" id="Layer_1" xmlns="http://www.w3.org/2000/svg" xmlns:xlink="http://www.w3.org/1999/xlink" x="0px" y="0px"
	 width="49.313px" height="48.063px" viewBox="0 0 49.313 48.063" enable-background="new 0 0 49.313 48.063" xml:space="preserve">
<g>
	<path fill="#FFFFFF" d="M44.238,46.602c-0.731,0-1.465-0.278-2.022-0.839L2.738,6.286c-1.117-1.118-1.117-2.932,0-4.049
		c1.117-1.118,2.933-1.118,4.049,0l39.477,39.478c1.118,1.118,1.118,2.93,0,4.048C45.704,46.322,44.972,46.602,44.238,46.602z"/>
</g>
<g>
	<path fill="#FFFFFF" d="M4.761,46.602c-0.732,0-1.465-0.278-2.024-0.839c-1.118-1.118-1.118-2.93,0-4.048L42.215,2.238
		c1.118-1.118,2.93-1.118,4.048,0s1.118,2.932,0,4.049L6.786,45.763C6.227,46.322,5.494,46.602,4.761,46.602z"/>
</g>
</svg>
