<?xml version="1.0" encoding="utf-8"?>
<!-- Generator: Adobe Illustrator 16.0.0, SVG Export Plug-In . SVG Version: 6.00 Build 0)  -->
<!DOCTYPE svg PUBLIC "-//W3C//DTD SVG 1.1//EN" "http://www.w3.org/Graphics/SVG/1.1/DTD/svg11.dtd">
<svg version="1.1" xmlns="http://www.w3.org/2000/svg" xmlns:xlink="http://www.w3.org/1999/xlink" x="0px" y="0px" width="181px"
	 height="117px" viewBox="0 0 181 117" enable-background="new 0 0 181 117" xml:space="preserve">
<g id="Layer_2" display="none">
	<g display="inline">
		<path fill="none" stroke="#000000" stroke-width="8" stroke-linecap="round" stroke-linejoin="round" stroke-miterlimit="10" d="
			M499.785,332.342c-9.125-6.112-9.367-21.75,5.55-23.964c13.945-2.069,16.205,12.955,11.069,21.397"/>
		<path fill="none" stroke="#000000" stroke-width="8" stroke-linecap="round" stroke-linejoin="round" stroke-miterlimit="10" d="
			M559.552,350.582c12.23,0.05,23.479-12.829,12.373-23.316c-10.383-9.803-23.249,1.707-25.02,11.864"/>
		<path fill="none" stroke="#000000" stroke-width="8" stroke-linecap="round" stroke-linejoin="round" stroke-miterlimit="10" d="
			M517.788,330.203c10.722-2.324,20.58,0.416,28.441,7.128"/>
		<path fill="none" stroke="#000000" stroke-width="8" stroke-linecap="round" stroke-linejoin="round" stroke-miterlimit="10" d="
			M559.359,351.236c8.264,23.582-10.767,36.814-19.48,39.12c-6.338,1.677-32.805,5.32-38.925-13.007"/>
	</g>
	<g display="inline">
		<g>
			<path d="M465.501,372.462c-4.284,0.517-6.418,0.844-10.669,1.643c-4.36-4.247-6.666-6.304-11.516-10.248
				c-0.218-0.171-0.429-0.456-0.635-0.856c-0.204-0.399-0.413-0.945-0.618-1.634c-0.102,0.025-0.151,0.04-0.253,0.065
				c1.465,5.887,2.195,8.83,3.661,14.716c-4.468,1.113-6.691,1.748-11.096,3.18c-4.34-13.354-6.507-20.031-10.844-33.385
				c5.032-1.634,7.569-2.367,12.672-3.659c5.355,3.781,7.914,5.763,12.788,9.878c0.22,0.18,0.428,0.473,0.617,0.88
				c0.192,0.409,0.367,0.961,0.54,1.659c0.105-0.021,0.159-0.029,0.265-0.05c-1.145-5.957-1.716-8.936-2.86-14.893
				c5.474-1.051,8.227-1.481,13.747-2.146C462.978,351.552,463.82,358.521,465.501,372.462z"/>
			<path d="M468.762,357.996c-0.463-5.001,0.511-8.86,3.081-11.497c2.571-2.636,7.071-4.142,13.344-4.142
				c6.272,0,10.769,1.507,13.339,4.143c2.569,2.638,3.546,6.495,3.083,11.496c-0.463,5.004-2.066,8.594-4.655,10.867
				c-2.59,2.271-6.461,3.259-11.768,3.259c-5.181,0-9.017-0.973-11.667-3.195C470.871,366.703,469.232,363.093,468.762,357.996z
				 M482.008,352.962c0.077,4.399,0.117,6.597,0.193,10.997c0.737-0.014,1.105-0.018,1.842-0.021c1.46-0.01,2.515-0.143,3.167-0.416
				c0.651-0.272,0.985-0.922,1.003-1.951c0.077-4.398,0.114-6.598,0.191-10.997c-0.795-0.014-1.191-0.019-1.986-0.023
				c-1.575-0.011-2.708,0.142-3.4,0.43C482.325,351.269,481.99,351.932,482.008,352.962z"/>
			<path d="M535.997,379.327c-4.147-1.348-6.24-1.951-10.446-3.017c-2.184-5.69-3.413-8.524-6.146-14.14
				c-0.125-0.247-0.199-0.596-0.218-1.043c-0.02-0.446,0.021-1.03,0.126-1.74c-0.103-0.021-0.155-0.029-0.259-0.05
				c-1.144,5.956-1.714,8.935-2.858,14.892c-4.511-0.866-6.778-1.22-11.326-1.768c1.682-13.94,2.521-20.909,4.202-34.85
				c5.196,0.627,7.79,1.025,12.946,1.995c3.257,5.678,4.75,8.552,7.453,14.337c0.126,0.257,0.185,0.61,0.186,1.057
				c0.002,0.451-0.068,1.03-0.205,1.735c0.104,0.025,0.156,0.039,0.261,0.065c1.466-5.887,2.199-8.83,3.663-14.716
				c5.426,1.351,8.123,2.122,13.467,3.858C542.501,359.296,540.332,365.973,535.997,379.327z"/>
		</g>
	</g>
</g>
<g id="Layer_4" display="none">
	<rect display="inline" width="1000" height="700"/>
</g>
<g id="Layer_3">
	<g>
		<path fill="none" stroke="#FFFFFF" stroke-width="8" stroke-linecap="round" stroke-linejoin="round" stroke-miterlimit="10" d="
			M89.786,36.342c-9.125-6.112-9.367-21.75,5.549-23.964c13.945-2.069,16.205,12.955,11.069,21.397"/>
		<path fill="none" stroke="#FFFFFF" stroke-width="8" stroke-linecap="round" stroke-linejoin="round" stroke-miterlimit="10" d="
			M149.552,54.582c12.23,0.05,23.479-12.829,12.373-23.316c-10.383-9.803-23.249,1.707-25.02,11.864"/>
		<path fill="none" stroke="#FFFFFF" stroke-width="8" stroke-linecap="round" stroke-linejoin="round" stroke-miterlimit="10" d="
			M107.788,34.203c10.722-2.324,20.58,0.416,28.441,7.128"/>
		<path fill="none" stroke="#FFFFFF" stroke-width="8" stroke-linecap="round" stroke-linejoin="round" stroke-miterlimit="10" d="
			M149.359,55.236c8.264,23.582-10.767,36.814-19.48,39.12c-6.338,1.677-32.805,5.32-38.925-13.007"/>
	</g>
	<g>
		<g>
			<path fill="#FAFAFA" d="M55.502,76.462c-4.284,0.517-6.418,0.844-10.669,1.643c-4.36-4.247-6.666-6.304-11.516-10.248
				C33.099,67.686,32.888,67.4,32.682,67c-0.204-0.399-0.413-0.945-0.618-1.634c-0.102,0.025-0.151,0.04-0.253,0.065
				c1.465,5.887,2.195,8.83,3.661,14.716c-4.468,1.113-6.691,1.748-11.096,3.18c-4.34-13.354-6.507-20.031-10.844-33.385
				c5.032-1.634,7.569-2.367,12.672-3.659c5.355,3.781,7.914,5.763,12.788,9.878c0.22,0.18,0.428,0.473,0.617,0.88
				c0.192,0.409,0.367,0.961,0.54,1.659c0.105-0.021,0.159-0.029,0.265-0.05c-1.145-5.957-1.716-8.936-2.86-14.893
				c5.474-1.051,8.227-1.481,13.747-2.146C52.979,55.552,53.82,62.521,55.502,76.462z"/>
			<path fill="#FAFAFA" d="M58.763,61.996c-0.463-5.001,0.511-8.86,3.081-11.497c2.571-2.636,7.071-4.142,13.344-4.142
				c6.272,0,10.769,1.507,13.339,4.143c2.569,2.638,3.545,6.495,3.083,11.496C91.146,67,89.544,70.59,86.955,72.863
				c-2.59,2.271-6.461,3.259-11.768,3.259c-5.181,0-9.017-0.973-11.667-3.195C60.872,70.703,59.233,67.093,58.763,61.996z
				 M72.008,56.962c0.077,4.399,0.117,6.597,0.193,10.997c0.737-0.014,1.105-0.018,1.842-0.021c1.46-0.01,2.515-0.143,3.167-0.416
				c0.651-0.272,0.985-0.922,1.003-1.951c0.077-4.398,0.114-6.598,0.191-10.997c-0.795-0.014-1.191-0.019-1.986-0.023
				c-1.575-0.011-2.708,0.142-3.4,0.43C72.325,55.269,71.99,55.932,72.008,56.962z"/>
			<path fill="#FAFAFA" d="M125.997,83.327c-4.147-1.348-6.24-1.951-10.446-3.017c-2.184-5.69-3.413-8.524-6.146-14.14
				c-0.125-0.247-0.199-0.596-0.218-1.043c-0.02-0.446,0.021-1.03,0.126-1.74c-0.103-0.021-0.155-0.029-0.259-0.05
				c-1.144,5.956-1.714,8.935-2.858,14.892c-4.511-0.866-6.778-1.22-11.326-1.768c1.682-13.94,2.521-20.909,4.202-34.85
				c5.196,0.627,7.79,1.025,12.946,1.995c3.257,5.678,4.75,8.552,7.453,14.337c0.126,0.257,0.185,0.61,0.186,1.057
				c0.002,0.451-0.068,1.03-0.205,1.735c0.104,0.025,0.156,0.039,0.261,0.065c1.466-5.887,2.199-8.83,3.663-14.716
				c5.426,1.351,8.123,2.122,13.467,3.858C132.501,63.296,130.332,69.973,125.997,83.327z"/>
		</g>
	</g>
</g>
</svg>
