<svg width="76" height="59" viewBox="0 0 76 59" fill="none" xmlns="http://www.w3.org/2000/svg">
<path d="M15.125 47.4688H16.9062C17.8229 47.4688 18.5 47.1042 18.9375 46.375C19.375 45.6458 19.9479 43.9583 20.6562 41.3125C20.9062 40.2917 21.2083 39.6771 21.5625 39.4688C21.9167 39.2396 22.5208 39.125 23.375 39.125C24.3125 39.125 24.9167 39.2083 25.1875 39.375C25.4583 39.5208 25.5938 39.8021 25.5938 40.2188C25.5938 40.5104 25.5417 40.9792 25.4375 41.625L24.3438 49.0938C24.2188 49.8646 24.0521 50.375 23.8438 50.625C23.6562 50.875 23.2604 51 22.6562 51H2.09375C1.21875 51 0.78125 50.4583 0.78125 49.375C0.78125 48.5417 0.833333 48.0104 0.9375 47.7812C1.0625 47.5312 1.3125 47.3438 1.6875 47.2188C2.875 46.8438 3.46875 45.75 3.46875 43.9375V6.8125C3.46875 6.04167 3.09375 5.48958 2.34375 5.15625C1.69792 4.88542 1.30208 4.58333 1.15625 4.25C1.01042 3.91667 0.9375 3.36458 0.9375 2.59375C0.9375 1.67708 1 1.11458 1.125 0.90625C1.25 0.677083 1.58333 0.5625 2.125 0.5625H16.5312C17.0729 0.5625 17.4375 0.697917 17.625 0.96875C17.8333 1.21875 17.9375 1.91667 17.9375 3.0625C17.9375 3.75 17.8646 4.21875 17.7188 4.46875C17.5938 4.69792 17.25 4.90625 16.6875 5.09375C15.6458 5.44792 15.125 6.13542 15.125 7.15625V47.4688ZM28.3125 0.5625H43.2188C43.8021 0.5625 44.1771 0.645833 44.3438 0.8125C44.5312 0.979167 44.625 1.44792 44.625 2.21875C44.625 3.21875 44.5417 3.85417 44.375 4.125C44.2292 4.375 43.8854 4.58333 43.3438 4.75C42.7188 4.9375 42.3333 5.15625 42.1875 5.40625C42.0625 5.65625 42 6.19792 42 7.03125V41.4375C42 46.2292 40.7083 50.3229 38.125 53.7188C35.5417 57.1354 31.5521 58.8438 26.1562 58.8438C25.1354 58.8438 24.5208 58.7604 24.3125 58.5938C24.1042 58.4479 24 58.1146 24 57.5938V56.4062C24 55.9271 24.0521 55.6146 24.1562 55.4688C24.2396 55.3229 24.5312 55.2292 25.0312 55.1875C28.5729 54.875 30.3438 52.0417 30.3438 46.6875V8.46875C30.3438 6.94792 30.1979 5.97917 29.9062 5.5625C29.6354 5.125 29.125 4.79167 28.375 4.5625C27.625 4.33333 27.25 3.83333 27.25 3.0625C27.25 1.77083 27.2917 1.03125 27.375 0.84375C27.4792 0.65625 27.7917 0.5625 28.3125 0.5625ZM66.7188 28.4062V44.7812C66.7188 45.6146 67.25 46.2188 68.3125 46.5938C68.7708 46.7604 69.0833 46.9375 69.25 47.125C69.4375 47.2917 69.5312 48.0208 69.5312 49.3125C69.5312 50.1042 69.4479 50.5833 69.2812 50.75C69.1146 50.9167 68.7812 51 68.2812 51H53.4688C52.7396 51 52.375 50.6771 52.375 50.0312V48.1875C52.375 47.4167 52.8542 46.875 53.8125 46.5625C54.3125 46.3958 54.6458 46.1979 54.8125 45.9688C54.9792 45.7188 55.0625 45.2604 55.0625 44.5938V29.2188L48.7812 7C48.4688 5.89583 47.8854 5.16667 47.0312 4.8125C46.5729 4.60417 46.3438 4.26042 46.3438 3.78125V1.40625C46.3438 0.84375 46.6458 0.5625 47.25 0.5625H60.5C60.875 0.5625 61.125 0.666667 61.25 0.875C61.375 1.08333 61.4375 1.63542 61.4375 2.53125C61.4375 3.42708 61.3958 4 61.3125 4.25C61.25 4.47917 61.0521 4.6875 60.7188 4.875C60.2396 5.1875 60 5.58333 60 6.0625C60 6.33333 60.0521 6.64583 60.1562 7L64.25 20.9375L68.4688 7C68.4896 6.875 68.5 6.67708 68.5 6.40625C68.5 5.73958 68.0938 5.05208 67.2812 4.34375C66.9062 4.01042 66.7188 3.70833 66.7188 3.4375V1.59375C66.7188 0.90625 67.0208 0.5625 67.625 0.5625H74.4688C75.0938 0.5625 75.4062 0.90625 75.4062 1.59375V3.5625C75.4062 3.91667 75.1771 4.26042 74.7188 4.59375C73.9271 5.15625 73.375 5.95833 73.0625 7L66.7188 28.4062Z" fill="white"/>
</svg>
